<?xml version="1.0" encoding="utf-8"?>
<svg viewBox="93.135 328.925 343.304 52.706" xmlns="http://www.w3.org/2000/svg">
  <path d="M 135.648 349.91 L 143.348 349.91 L 147.748 371.14 L 149.288 371.14 L 153.908 349.91 L 161.388 349.91 L 154.788 377.41 L 142.248 377.41 Z" style="fill: rgb(255, 255, 255); white-space: pre;"/>
  <path d="M 165.617 377.41 L 165.617 349.91 L 172.987 349.91 L 172.987 377.41 Z M 165.617 346.39 L 165.617 338.91 L 172.987 338.91 L 172.987 346.39 Z" style="fill: rgb(255, 255, 255); white-space: pre;"/>
  <path d="M 178.651 356.51 L 178.651 349.91 L 199.056 349.91 L 199.056 356.51 L 187.506 370.81 L 199.056 370.81 L 199.056 377.41 L 178.651 377.41 L 178.651 370.81 L 190.201 356.51 Z" style="fill: rgb(255, 255, 255); white-space: pre;"/>
  <path d="M 230.188 349.25 Q 235.963 349.25 238.63 352.413 Q 241.298 355.575 241.298 363.715 Q 241.298 371.855 238.218 374.963 Q 235.138 378.07 227.603 378.07 Q 225.238 378.07 218.968 377.52 L 216.878 377.3 L 216.878 338.91 L 224.248 338.91 L 224.248 350.735 Q 227.768 349.25 230.188 349.25 Z M 227.603 371.47 Q 231.288 371.47 232.553 369.683 Q 233.818 367.895 233.818 363.275 Q 233.818 355.85 229.198 355.85 Q 226.998 355.85 225.018 356.4 L 224.248 356.565 L 224.248 371.25 Q 226.778 371.47 227.603 371.47 Z" style="fill: rgb(255, 255, 255); white-space: pre;"/>
  <path d="M 263.019 349.91 L 270.389 349.91 L 270.389 377.41 L 263.074 377.41 L 263.074 375.87 Q 259.114 378.07 256.199 378.07 Q 250.479 378.07 248.499 374.908 Q 246.519 371.745 246.519 364.32 L 246.519 349.91 L 253.889 349.91 L 253.889 364.43 Q 253.889 368.5 254.549 369.985 Q 255.209 371.47 257.739 371.47 Q 260.159 371.47 262.304 370.7 L 263.019 370.48 Z" style="fill: rgb(255, 255, 255); white-space: pre;"/>
  <path d="M 277.209 377.41 L 277.209 349.91 L 284.579 349.91 L 284.579 377.41 Z M 277.209 346.39 L 277.209 338.91 L 284.579 338.91 L 284.579 346.39 Z" style="fill: rgb(255, 255, 255); white-space: pre;"/>
  <path d="M 291.728 377.41 L 291.728 338.91 L 299.098 338.91 L 299.098 377.41 Z" style="fill: rgb(255, 255, 255); white-space: pre;"/>
  <path d="M 329.625 338.91 L 329.625 377.41 L 322.31 377.41 L 322.31 376.255 Q 318.46 378.07 315.655 378.07 Q 309.66 378.07 307.295 374.605 Q 304.93 371.14 304.93 363.633 Q 304.93 356.125 307.762 352.688 Q 310.595 349.25 316.315 349.25 Q 318.075 349.25 321.21 349.8 L 322.255 350.02 L 322.255 338.91 Z M 321.485 370.81 L 322.255 370.645 L 322.255 356.18 Q 319.23 355.63 316.865 355.63 Q 312.41 355.63 312.41 363.55 Q 312.41 367.84 313.4 369.655 Q 314.39 371.47 316.672 371.47 Q 318.955 371.47 321.485 370.81 Z" style="fill: rgb(255, 255, 255); white-space: pre;"/>
  <path d="M 363.776 356.18 L 357.011 356.18 L 357.011 367.455 Q 357.011 369.105 357.094 369.793 Q 357.176 370.48 357.699 370.975 Q 358.221 371.47 359.321 371.47 L 363.501 371.36 L 363.831 377.245 Q 360.146 378.07 358.221 378.07 Q 353.271 378.07 351.456 375.843 Q 349.641 373.615 349.641 367.62 L 349.641 356.18 L 346.396 356.18 L 346.396 349.91 L 349.641 349.91 L 349.641 342.265 L 357.011 342.265 L 357.011 349.91 L 363.776 349.91 Z" style="fill: rgb(255, 255, 255); white-space: pre;"/>
  <path d="M 370.043 353.018 Q 370.043 353.018 371.501 351.134 Q 372.958 349.25 379.778 349.25 Q 386.598 349.25 389.513 353.018 Q 392.428 356.785 392.428 363.605 Q 392.428 378.07 379.778 378.07 Q 367.128 378.07 367.128 363.605 Q 367.128 356.785 370.043 353.018 Z M 375.736 369.82 Q 375.736 369.82 376.299 370.81 Q 376.863 371.8 379.778 371.8 Q 382.693 371.8 383.821 369.82 Q 384.948 367.84 384.948 363.605 Q 384.948 359.37 383.821 357.445 Q 382.693 355.52 379.778 355.52 Q 376.863 355.52 375.736 357.445 Q 374.608 359.37 374.608 363.605 Q 374.608 367.84 375.736 369.82 Z" style="fill: rgb(255, 255, 255); white-space: pre;"/>
  <path d="M 399.303 353.018 Q 399.303 353.018 400.76 351.134 Q 402.218 349.25 409.038 349.25 Q 415.858 349.25 418.773 353.018 Q 421.688 356.785 421.688 363.605 Q 421.688 378.07 409.038 378.07 Q 396.388 378.07 396.388 363.605 Q 396.388 356.785 399.303 353.018 Z M 404.995 369.82 Q 404.995 369.82 405.559 370.81 Q 406.123 371.8 409.038 371.8 Q 411.953 371.8 413.08 369.82 Q 414.208 367.84 414.208 363.605 Q 414.208 359.37 413.08 357.445 Q 411.953 355.52 409.038 355.52 Q 406.123 355.52 404.995 357.445 Q 403.868 359.37 403.868 363.605 Q 403.868 367.84 404.995 369.82 Z" style="fill: rgb(255, 255, 255); white-space: pre;"/>
  <path d="M 427.407 377.41 L 427.407 338.91 L 434.777 338.91 L 434.777 377.41 Z" style="fill: rgb(255, 255, 255); white-space: pre;"/>
  <g id="document" transform="matrix(0.028261, 0, 0, -0.033498, 112.008858, 355.788788)" style="">
    <g>
      <path d="M-374.428,-111.505 C-374.428,-315.249 -209.961,-479.716 -6.21747,-479.716 L607.467,-479.716 L607.467,-725.19 L-6.21747,-725.19 C-344.971,-725.19 -619.902,-450.259 -619.902,-111.505 L-619.902,502.179 L-374.428,502.179 L-374.428,-111.505 Z " stroke-width="79.06" stroke-linecap="square" stroke-linejoin="miter" style="paint-order: stroke; stroke: rgb(255, 255, 255); fill: rgb(255, 255, 255);"/>
      <path d="M-374.428,489.906 C-374.428,286.162 -209.961,121.695 -6.21747,121.695 C-6.21747,121.695 310.087,121.695 482.323,121.695 C654.56,121.695 676.604,-123.779 482.323,-123.779 C288.043,-123.779 -6.21747,-123.779 -6.21747,-123.779 C-344.971,-123.779 -619.902,151.152 -619.902,489.906 C-619.902,489.906 -619.902,423.331 -619.902,594.941 C-619.902,766.552 -374.428,770.648 -374.428,594.941 C-374.428,419.235 -374.428,489.906 -374.428,489.906 Z " stroke-width="79.06" stroke-linecap="square" stroke-linejoin="miter" style="paint-order: stroke; stroke: rgb(255, 255, 255); fill: rgb(255, 255, 255);"/>
    </g>
  </g>
</svg>