<?xml version="1.0" encoding="UTF-8" standalone="no"?>
<!-- Created with Inkscape (http://www.inkscape.org/) -->

<svg
   width="4in"
   height="0.5in"
   viewBox="0 0 101.6 12.7"
   version="1.1"
   id="svg5"
   xml:space="preserve"
   inkscape:version="1.2.1 (9c6d41e4, 2022-07-14)"
   sodipodi:docname="vbt-icon.svg"
   xmlns:inkscape="http://www.inkscape.org/namespaces/inkscape"
   xmlns:sodipodi="http://sodipodi.sourceforge.net/DTD/sodipodi-0.dtd"
   xmlns="http://www.w3.org/2000/svg"
   xmlns:svg="http://www.w3.org/2000/svg"><sodipodi:namedview
     id="namedview7"
     pagecolor="#ffffff"
     bordercolor="#000000"
     borderopacity="0.25"
     inkscape:showpageshadow="2"
     inkscape:pageopacity="0.0"
     inkscape:pagecheckerboard="0"
     inkscape:deskcolor="#d1d1d1"
     inkscape:document-units="mm"
     showgrid="false"
     inkscape:zoom="1.713583"
     inkscape:cx="187.035"
     inkscape:cy="16.631817"
     inkscape:window-width="1390"
     inkscape:window-height="639"
     inkscape:window-x="0"
     inkscape:window-y="25"
     inkscape:window-maximized="0"
     inkscape:current-layer="layer1" /><defs
     id="defs2"><rect
       x="339.45944"
       y="420.33737"
       width="83.156174"
       height="87.712677"
       id="rect130" /></defs><g
     inkscape:label="Layer 1"
     inkscape:groupmode="layer"
     id="layer1"><text
       xml:space="preserve"
       style="font-size:8.80867px;fill:#ffffff;stroke-width:0.235946"
       x="23.32353"
       y="11.708602"
       id="text113"><tspan
         sodipodi:role="line"
         id="tspan111"
         style="font-style:normal;font-variant:normal;font-weight:bold;font-stretch:normal;font-size:8.80867px;font-family:Menlo;-inkscape-font-specification:'Menlo Bold';fill:#ffffff;stroke-width:0.235946"
         x="23.32353"
         y="11.708602">viz build tool</tspan></text><g
       style="fill:#ffffff;stroke:#ffffff"
       id="g303"
       transform="matrix(0.27523345,0,0,0.27523345,2.8390508,0.97509648)"><path
         d="m 56.25,1.25 c 0,0.69036 0.5596,1.25 1.25,1.25 h 1.25 C 59.4404,2.5 60,1.94036 60,1.25 60,0.559648 59.4404,3.49691e-6 58.75,3.49691e-6 H 57.5 C 56.8096,3.49691e-6 56.25,0.559648 56.25,1.25 Z"
         class="ccustom"
         fill="#212326"
         id="path292"
         style="fill:#ffffff;stroke:#ffffff" /><path
         d="m 20,40 h 6.0723 L 24.3045,38.2322 C 23.8357,37.7634 23.1998,37.5 22.5368,37.5 H 20 C 10.335,37.5 2.5,29.665 2.5,20 2.5,10.335 10.335,2.50001 20,2.5 h 20 c 9.665,0 17.5,7.835 17.5,17.5 0,9.665 -7.835,17.5 -17.5,17.5 h -7.4816 c -0.9946,0 -1.9484,-0.3951 -2.6517,-1.0983 l -2.071,-2.0711 C 26.6236,33.1585 25.0338,32.5 23.3762,32.5 H 20 C 13.0964,32.5 7.5,26.9036 7.5,20 7.5,13.0964 13.0964,7.5 20,7.5 h 20 c 6.9036,0 12.5,5.5964 12.5,12.5 0,6.9036 -5.5964,12.5 -12.5,12.5 h -4.8039 c -0.9946,0 -1.9484,-0.3951 -2.6517,-1.0983 L 30.4733,29.3306 C 29.3012,28.1585 27.7115,27.5 26.0539,27.5 H 20 c -4.1421,0 -7.5,-3.3579 -7.5,-7.5 0,-4.1421 3.3579,-7.5 7.5,-7.5 h 20 c 4.1421,0 7.5,3.3579 7.5,7.5 0,4.0916 -3.2765,7.418 -7.3488,7.4985 l -8e-4,0.0015 h -1.8293 c -0.9946,0 -1.9484,-0.3951 -2.6517,-1.0983 L 33.5983,24.3306 C 32.6366,23.3688 31.3937,22.7529 30.0628,22.5628 L 30,22.5 H 20 c -1.3807,0 -2.5,-1.1193 -2.5,-2.5 0,-1.3807 1.1193,-2.5 2.5,-2.5 h 20 c 1.3807,0 2.5,1.1193 2.5,2.5 0,1.3807 -1.1193,2.5 -2.5,2.5 h -5 l 1.7678,1.7678 C 37.2366,24.7366 37.8725,25 38.5355,25 H 40 c 2.7614,0 5,-2.2386 5,-5 0,-2.7614 -2.2386,-5 -5,-5 H 20 c -2.7614,0 -5,2.2386 -5,5 0,2.7614 2.2386,5 5,5 h 9.1789 c 0.9946,0 1.9484,0.3951 2.6517,1.0983 l 2.0711,2.0711 C 35.0738,29.3415 36.6635,30 38.3211,30 H 40.625 V 29.9808 C 45.8567,29.6582 50,25.3129 50,20 50,14.4772 45.5228,10 40,10 H 20 c -5.5228,0 -10,4.4772 -10,10 0,5.5229 4.4772,10 10,10 h 6.0539 c 0.9946,0 1.9484,0.3951 2.6517,1.0983 l 2.0711,2.0711 C 31.9488,34.3415 33.5385,35 35.1961,35 H 40 C 48.2843,35 55,28.2843 55,20 55,11.7157 48.2843,5 40,5 H 20 C 11.7157,5 5,11.7157 5,20 c 0,8.2843 6.7157,15 15,15 h 3.3762 c 0.9946,0 1.9484,0.3951 2.6517,1.0983 l 2.0711,2.0711 C 29.2711,39.3415 30.8608,40 32.5184,40 H 40 C 51.0457,40 60,31.0457 60,20 60,8.9543 51.0457,-9.65645e-7 40,0 L 20,4.13264e-6 C 8.9543,5.09829e-6 -9.65645e-7,8.95431 0,20 9.65645e-7,31.0457 8.95431,40 20,40 Z"
         class="ccustom"
         fill="#212326"
         id="path294"
         style="fill:#ffffff;stroke:#ffffff" /></g></g></svg>
